<?xml version="1.0"?>
<svg width="175" height="46" xmlns="http://www.w3.org/2000/svg">
 <g class="layer">
  <title>Layer 1</title>
  <path d="m11.6,28.46a1.54,1.54 0 1 0 -2.75,-1.39a1.54,1.54 0 0 0 2.75,1.39z" fill="#3350A3" id="svg_3"/>
  <path d="m20.17,44.31l-0.11,-0.07c0.25,-0.27 0.39,-0.71 0.29,-1.17c-0.1,-0.51 -0.46,-0.88 -0.84,-0.94c-0.29,0.27 -0.41,0.78 -0.3,1.27c0.03,0.15 0.08,0.29 0.15,0.41l-0.31,-0.19l-0.32,-0.18l-0.11,-0.06c0.23,-0.29 0.33,-0.73 0.2,-1.19c-0.13,-0.5 -0.51,-0.83 -0.89,-0.88c-0.27,0.3 -0.36,0.81 -0.22,1.29a1.6,1.6 0 0 0 0.18,0.4s-0.17,-0.08 -0.33,-0.16l-0.33,-0.16l-0.11,-0.06c0.21,-0.3 0.28,-0.75 0.13,-1.2c-0.16,-0.48 -0.55,-0.8 -0.94,-0.82c-0.25,0.31 -0.32,0.82 -0.15,1.3c0.05,0.15 0.12,0.27 0.2,0.38l-0.33,-0.14l-0.33,-0.14l-0.12,-0.05c0.19,-0.31 0.24,-0.77 0.06,-1.2c-0.19,-0.48 -0.59,-0.77 -0.97,-0.77c-0.24,0.32 -0.28,0.83 -0.08,1.3c0.06,0.14 0.13,0.27 0.22,0.37l-0.68,-0.24l-0.13,-0.04c0.18,-0.33 0.2,-0.79 0.01,-1.21a1.33,1.33 0 0 0 -0.45,-0.54c-0.17,-0.13 -0.39,-0.19 -0.54,-0.18a1.39,1.39 0 0 0 -0.04,1.31c0.07,0.14 0.15,0.26 0.24,0.36l-0.69,-0.22l-0.12,-0.04c0.17,-0.32 0.18,-0.78 0.03,-1.19a1.34,1.34 0 0 0 -0.35,-0.54a0.78,0.78 0 0 0 -0.22,-0.14a0.6,0.6 0 0 0 -0.24,-0.06c-0.24,0.31 -0.35,0.82 -0.19,1.29c0.05,0.14 0.12,0.27 0.2,0.37l-0.33,-0.13l-0.33,-0.14l-0.11,-0.05c0.2,-0.31 0.26,-0.76 0.15,-1.18c-0.11,-0.48 -0.39,-0.77 -0.71,-0.82c-0.28,0.28 -0.44,0.77 -0.34,1.26c0.03,0.15 0.09,0.28 0.16,0.39l-0.1,-0.05c-0.06,-0.03 -0.14,-0.07 -0.21,-0.11l-0.31,-0.18l-0.11,-0.06c0.23,-0.29 0.34,-0.72 0.29,-1.16a1.27,1.27 0 0 0 -0.22,-0.6a0.66,0.66 0 0 0 -0.4,-0.29c-0.31,0.25 -0.52,0.7 -0.47,1.2c0.01,0.15 0.05,0.3 0.11,0.42c0,0 -0.04,-0.03 -0.09,-0.07s-0.13,-0.09 -0.2,-0.14a25.69,25.69 0 0 0 -0.29,-0.21l-0.11,-0.07c0.27,-0.25 0.44,-0.69 0.43,-1.12c-0.01,-0.48 -0.2,-0.85 -0.51,-0.95c-0.33,0.2 -0.61,0.64 -0.61,1.14c0,0.15 0.02,0.29 0.06,0.42l-0.26,-0.24l-0.19,-0.16c-0.05,-0.04 -0.08,-0.08 -0.08,-0.08l-0.09,-0.09c0.3,-0.22 0.51,-0.62 0.56,-1.06a1.4,1.4 0 0 0 -0.07,-0.63a0.75,0.75 0 0 0 -0.32,-0.38c-0.36,0.17 -0.68,0.58 -0.75,1.07c-0.02,0.15 -0.01,0.29 0.02,0.42l-0.24,-0.26a3.21,3.21 0 0 1 -0.16,-0.19c-0.04,-0.05 -0.07,-0.08 -0.07,-0.08l-0.08,-0.1c0.32,-0.19 0.57,-0.57 0.66,-0.99c0.12,-0.48 -0.01,-0.86 -0.28,-1.05c-0.37,0.12 -0.73,0.49 -0.86,0.98a1.26,1.26 0 0 0 -0.03,0.42s-0.1,-0.15 -0.21,-0.29l-0.19,-0.3l-0.08,-0.11c0.34,-0.15 0.63,-0.49 0.78,-0.91c0.08,-0.23 0.1,-0.45 0.07,-0.63a0.71,0.71 0 0 0 -0.24,-0.45c-0.39,0.09 -0.78,0.41 -0.95,0.88a1.18,1.18 0 0 0 -0.08,0.42s-0.1,-0.15 -0.18,-0.31l-0.17,-0.32l-0.06,-0.11c0.36,-0.11 0.68,-0.43 0.87,-0.83c0.21,-0.45 0.17,-0.85 -0.05,-1.1c-0.4,0.05 -0.82,0.33 -1.05,0.79a1.3,1.3 0 0 0 -0.12,0.4s-0.07,-0.16 -0.14,-0.32l-0.13,-0.33l-0.05,-0.12c0.36,-0.08 0.73,-0.36 0.94,-0.74c0.25,-0.42 0.27,-0.84 0.05,-1.1c-0.4,0.01 -0.85,0.25 -1.1,0.68a1.34,1.34 0 0 0 -0.16,0.39l-0.22,-0.68l-0.03,-0.12c0.36,-0.04 0.75,-0.29 1.01,-0.65c0.14,-0.2 0.22,-0.4 0.24,-0.59a0.7,0.7 0 0 0 -0.1,-0.51c-0.39,-0.03 -0.86,0.18 -1.16,0.58c-0.09,0.12 -0.17,0.25 -0.2,0.38c0,0 -0.01,-0.04 -0.03,-0.11a13.71,13.71 0 0 0 -0.05,-0.24l-0.07,-0.35l-0.02,-0.12c0.37,-0.01 0.77,-0.22 1.05,-0.56c0.33,-0.38 0.4,-0.79 0.24,-1.09c-0.39,-0.06 -0.89,0.1 -1.21,0.48a1.35,1.35 0 0 0 -0.22,0.36l-0.05,-0.35a4.9,4.9 0 0 1 -0.05,-0.36l-0.01,-0.12c0.37,0.02 0.79,-0.16 1.1,-0.48c0.34,-0.35 0.46,-0.76 0.32,-1.07c-0.39,-0.09 -0.88,0.04 -1.24,0.39a1.41,1.41 0 0 0 -0.26,0.35l-0.03,-0.72l-0.01,-0.13c0.37,0.05 0.79,-0.09 1.13,-0.38c0.39,-0.33 0.51,-0.74 0.4,-1.06c-0.37,-0.12 -0.89,-0.02 -1.27,0.3a1.36,1.36 0 0 0 -0.27,0.33l0,-0.36c0,-0.09 0,-0.18 0.01,-0.25l0,-0.11l0.01,-0.13c0.36,0.08 0.81,-0.03 1.16,-0.3c0.38,-0.3 0.57,-0.7 0.47,-1.03c-0.37,-0.14 -0.88,-0.08 -1.28,0.21c-0.13,0.09 -0.23,0.2 -0.31,0.31l0.07,-0.71l0.02,-0.13c0.35,0.1 0.79,0.02 1.17,-0.22c0.43,-0.27 0.61,-0.66 0.54,-1c-0.35,-0.17 -0.88,-0.14 -1.29,0.13a1.3,1.3 0 0 0 -0.32,0.28l0.05,-0.35c0.03,-0.18 0.06,-0.36 0.06,-0.36l0.03,-0.12c0.34,0.12 0.8,0.07 1.19,-0.15c0.21,-0.12 0.37,-0.27 0.47,-0.44a0.74,0.74 0 0 0 0.13,-0.51c-0.35,-0.19 -0.86,-0.2 -1.3,0.04a1.28,1.28 0 0 0 -0.34,0.26s0.01,-0.05 0.02,-0.11l0.06,-0.24l0.08,-0.35l0.03,-0.12c0.34,0.14 0.8,0.12 1.19,-0.07c0.46,-0.21 0.7,-0.57 0.67,-0.92c-0.33,-0.21 -0.84,-0.26 -1.3,-0.04a1.31,1.31 0 0 0 -0.35,0.24l0.2,-0.69l0.04,-0.12c0.33,0.17 0.79,0.18 1.2,0.01c0.23,-0.09 0.41,-0.22 0.53,-0.38a0.87,0.87 0 0 0 0.2,-0.53c-0.32,-0.24 -0.84,-0.28 -1.3,-0.09a1.35,1.35 0 0 0 -0.37,0.22s0.06,-0.17 0.12,-0.34l0.12,-0.34l0.04,-0.12c0.33,0.17 0.78,0.2 1.21,0.01c0.47,-0.21 0.76,-0.68 0.73,-1.11c-0.34,-0.22 -0.86,-0.18 -1.31,0.06a1.64,1.64 0 0 0 -0.36,0.25s0.05,-0.17 0.1,-0.35c0.05,-0.18 0.09,-0.36 0.09,-0.36l0.03,-0.13c0.34,0.14 0.8,0.12 1.2,-0.17c0.22,-0.16 0.38,-0.38 0.47,-0.61a1,1 0 0 0 0.06,-0.25c0.01,-0.11 0.02,-0.15 0.02,-0.2a0.85,0.85 0 0 0 -0.05,-0.29c-0.38,-0.12 -0.88,0.01 -1.26,0.35c-0.05,0.06 -0.11,0.12 -0.16,0.18a1.89,1.89 0 0 0 -0.14,0.16s0.01,-0.04 0.01,-0.11a2.02,2.02 0 0 0 0.02,-0.26l0,-0.37l0,-0.13c0.26,-0.23 0.43,-0.61 0.39,-1.06a2.03,2.03 0 0 0 -0.09,-0.46a1.19,1.19 0 0 0 -0.27,-0.33a1.08,1.08 0 0 0 -0.58,-0.25a1.22,1.22 0 0 0 -0.2,0.59a3.61,3.61 0 0 0 -0.02,0.27a0.87,0.87 0 0 0 -0.02,0.27c0.03,0.4 0.21,0.75 0.47,0.98l0,0.13s0,0.18 0,0.35c0,0.1 -0.01,0.17 -0.01,0.24l-0.02,0.11a1.08,1.08 0 0 0 -0.1,-0.18c-0.04,-0.06 -0.09,-0.09 -0.15,-0.14c-0.37,-0.34 -0.87,-0.45 -1.25,-0.34a0.69,0.69 0 0 0 -0.05,0.25c0,0.05 0,0.11 0.01,0.09c0.01,0 0.02,0 0.04,0.05c0.05,0.16 0.15,0.34 0.31,0.51c0.29,0.31 0.69,0.53 1.06,0.55l-0.03,0.12s-0.04,0.18 -0.09,0.35c-0.05,0.17 -0.1,0.34 -0.1,0.34a1.17,1.17 0 0 0 -0.17,-0.39a1.4,1.4 0 0 0 -1.14,-0.62c-0.19,0.24 -0.16,0.64 0.09,1.07c0.23,0.38 0.6,0.65 0.96,0.71l-0.04,0.12l-0.12,0.34c-0.06,0.17 -0.12,0.34 -0.12,0.34a1.46,1.46 0 0 0 -0.15,-0.4c-0.24,-0.45 -0.67,-0.73 -1.07,-0.75a0.83,0.83 0 0 0 -0.18,0.53c-0.01,0.22 0.05,0.46 0.17,0.69c0.22,0.41 0.6,0.66 0.96,0.72l-0.04,0.12l-0.2,0.7a1.45,1.45 0 0 0 -0.17,-0.4c-0.26,-0.45 -0.7,-0.73 -1.1,-0.72c-0.22,0.31 -0.22,0.82 0.04,1.25c0.26,0.4 0.65,0.63 1.02,0.66l-0.03,0.13l-0.08,0.35l-0.06,0.24l-0.02,0.11a1.54,1.54 0 0 0 -0.19,-0.38c-0.29,-0.42 -0.75,-0.67 -1.14,-0.64a0.97,0.97 0 0 0 -0.14,0.59c0.02,0.21 0.11,0.45 0.26,0.66c0.27,0.38 0.68,0.58 1.05,0.59l-0.02,0.12s-0.04,0.18 -0.06,0.36l-0.05,0.36a1.52,1.52 0 0 0 -0.23,-0.37c-0.32,-0.4 -0.78,-0.62 -1.18,-0.57c-0.19,0.34 -0.11,0.85 0.21,1.25c0.29,0.36 0.73,0.53 1.09,0.51l-0.01,0.13l-0.07,0.72a1.49,1.49 0 0 0 -0.24,-0.35c-0.34,-0.38 -0.83,-0.57 -1.22,-0.48c-0.16,0.35 -0.08,0.84 0.29,1.22c0.33,0.34 0.76,0.49 1.12,0.44l0,0.13l-0.01,0.11a4.32,4.32 0 0 0 0,0.25l0,0.36a1.55,1.55 0 0 0 -0.28,-0.33c-0.37,-0.35 -0.85,-0.51 -1.25,-0.4c-0.14,0.36 0.01,0.86 0.38,1.21c0.34,0.32 0.8,0.43 1.15,0.35l0.01,0.13l0.03,0.73a1.47,1.47 0 0 0 -0.29,-0.32c-0.39,-0.32 -0.9,-0.44 -1.27,-0.31c-0.11,0.38 0.05,0.86 0.47,1.18c0.37,0.29 0.82,0.37 1.17,0.27l0.02,0.13s0.01,0.18 0.04,0.36l0.05,0.36a1.51,1.51 0 0 0 -0.32,-0.29c-0.43,-0.29 -0.92,-0.38 -1.29,-0.21c-0.09,0.38 0.13,0.85 0.56,1.14c0.39,0.27 0.85,0.31 1.19,0.18l0.03,0.12l0.07,0.36c0.02,0.09 0.04,0.18 0.05,0.24c0.02,0.07 0.03,0.11 0.03,0.11c-0.1,-0.09 -0.2,-0.19 -0.34,-0.26c-0.44,-0.26 -0.96,-0.3 -1.3,-0.1a0.99,0.99 0 0 0 0.13,0.6c0.11,0.19 0.29,0.37 0.52,0.5c0.41,0.23 0.87,0.23 1.2,0.07l0.03,0.12l0.23,0.7a1.48,1.48 0 0 0 -0.37,-0.24c-0.46,-0.22 -0.99,-0.21 -1.32,0.01c0,0.4 0.28,0.83 0.76,1.05c0.44,0.19 0.89,0.14 1.21,-0.05l0.05,0.12s0.06,0.17 0.13,0.34c0.07,0.17 0.15,0.34 0.15,0.34a1.63,1.63 0 0 0 -0.39,-0.2c-0.48,-0.18 -0.99,-0.13 -1.3,0.13c0.01,0.41 0.36,0.81 0.85,0.98c0.44,0.15 0.9,0.06 1.19,-0.16l0.06,0.11l0.17,0.32c0.09,0.17 0.18,0.32 0.18,0.32a1.82,1.82 0 0 0 -0.4,-0.16c-0.49,-0.12 -1,-0.02 -1.28,0.27a0.99,0.99 0 0 0 0.3,0.55c0.17,0.16 0.39,0.28 0.64,0.34c0.46,0.1 0.91,-0.04 1.18,-0.29l0.07,0.11s0.1,0.15 0.2,0.3c0.11,0.15 0.22,0.3 0.22,0.3a1.6,1.6 0 0 0 -0.42,-0.12c-0.5,-0.07 -1,0.09 -1.25,0.4c0.1,0.39 0.52,0.72 1.04,0.78c0.48,0.05 0.9,-0.13 1.14,-0.41l0.08,0.1l0.07,0.09c0.05,0.05 0.1,0.13 0.17,0.19l0.24,0.27a1.54,1.54 0 0 0 -0.43,-0.06c-0.51,-0.01 -0.98,0.19 -1.19,0.53a0.96,0.96 0 0 0 0.42,0.47c0.2,0.12 0.43,0.2 0.7,0.19c0.48,0 0.88,-0.23 1.08,-0.53l0.09,0.09s0.04,0.03 0.09,0.08l0.18,0.17l0.28,0.24a1.54,1.54 0 0 0 -0.44,-0.02c-0.51,0.05 -0.95,0.31 -1.13,0.67c0.2,0.35 0.67,0.6 1.2,0.53c0.48,-0.06 0.84,-0.33 1.01,-0.66l0.11,0.08a1015.93,1015.93 0 0 0 0.5,0.36c0.05,0.04 0.09,0.06 0.09,0.06a1.72,1.72 0 0 0 -0.43,0.03c-0.5,0.11 -0.92,0.42 -1.04,0.8c0.11,0.17 0.3,0.29 0.52,0.37c0.22,0.07 0.47,0.07 0.73,0.01c0.46,-0.1 0.8,-0.43 0.93,-0.77l0.11,0.07l0.32,0.18c0.07,0.04 0.16,0.08 0.22,0.11l0.1,0.05a1.85,1.85 0 0 0 -0.43,0.09c-0.48,0.16 -0.86,0.52 -0.94,0.91c0.27,0.31 0.79,0.42 1.28,0.24c0.45,-0.17 0.75,-0.52 0.84,-0.88l0.12,0.05l0.33,0.15l0.34,0.13a1.53,1.53 0 0 0 -0.41,0.13c-0.47,0.22 -0.8,0.61 -0.83,1.02a0.96,0.96 0 0 0 0.26,0.16c0.1,0.04 0.21,0.06 0.32,0.07c0.23,0.02 0.48,-0.02 0.71,-0.14c0.43,-0.22 0.68,-0.6 0.74,-0.97l0.12,0.04l0.69,0.22a1.35,1.35 0 0 0 -0.4,0.16c-0.42,0.27 -0.71,0.69 -0.7,1.1c0.17,0.13 0.33,0.17 0.54,0.17c0.2,-0.01 0.42,-0.08 0.63,-0.2c0.38,-0.23 0.65,-0.61 0.71,-0.97l0.12,0.04l0.67,0.24a1.36,1.36 0 0 0 -0.4,0.14c-0.44,0.24 -0.71,0.68 -0.74,1.07c0.27,0.23 0.71,0.24 1.15,0.01c0.39,-0.21 0.68,-0.56 0.76,-0.93l0.12,0.05s0.16,0.07 0.33,0.14l0.33,0.14a1.36,1.36 0 0 0 -0.41,0.12c-0.46,0.22 -0.75,0.64 -0.8,1.03c0.25,0.24 0.69,0.28 1.14,0.07c0.41,-0.18 0.71,-0.53 0.81,-0.88l0.11,0.05a39.84,39.84 0 0 0 0.65,0.32a1.3,1.3 0 0 0 -0.42,0.1c-0.47,0.19 -0.78,0.59 -0.85,0.98c0.24,0.26 0.67,0.32 1.13,0.13c0.41,-0.16 0.74,-0.49 0.86,-0.83l0.11,0.06l0.31,0.18l0.31,0.18a1.34,1.34 0 0 0 -0.42,0.07c-0.47,0.16 -0.82,0.54 -0.91,0.93c0.22,0.26 0.64,0.35 1.11,0.2c0.42,-0.14 0.77,-0.43 0.92,-0.77l0.1,0.07l0.28,0.18c0.07,0.05 0.17,0.04 0.23,-0.04a0.16,0.16 0 0 0 -0.05,-0.22l-0.29,-0.2z" fill="#3B60C9" id="svg_4"/>
  <path d="m43.01,32.05c2.03,-4.03 2.12,-9.5 0.24,-14.63c-0.49,-1.36 -0.91,-2.52 -1.04,-4.18c-0.05,-2.42 0.19,-3.1 0.22,-3.17c0.15,-0.37 0.3,-0.72 0.47,-1.08l0.8,-1.69l-1.47,-1.18c-5.01,-4 -11.05,-6.12 -17.46,-6.12c-6.42,0 -12.46,2.12 -17.47,6.13l-1.47,1.17l0.8,1.69c0.17,0.35 0.32,0.71 0.47,1.08c0.01,0.03 0.27,0.72 0.22,3.17c-0.12,1.63 -0.55,2.81 -1.04,4.18c-1.87,5.13 -1.78,10.6 0.24,14.63c1.49,2.97 3.93,5.04 7.07,5.98c4.45,1.33 7.39,3.11 8.78,4.08l2.4,1.76l2.39,-1.76c1.39,-0.97 4.33,-2.76 8.78,-4.08c3.14,-0.94 5.58,-3.01 7.07,-5.98zm-17.04,9.46l-1.2,0.9l-1.21,-0.9c-1.14,-0.86 -4.39,-3.06 -9.63,-4.62c-2.82,-0.84 -5.01,-2.7 -6.35,-5.37c-1.88,-3.74 -1.95,-8.86 -0.19,-13.69c0.51,-1.4 0.99,-2.72 1.12,-4.53c0.05,-2.48 -0.2,-3.39 -0.31,-3.67a18.91,18.91 0 0 0 -0.49,-1.14l-0.4,-0.85l0.73,-0.59c4.79,-3.83 10.58,-5.86 16.73,-5.86c6.14,0 11.92,2.03 16.72,5.86l0.74,0.59l-0.41,0.85c-0.17,0.37 -0.34,0.75 -0.49,1.15c-0.14,0.33 -0.36,1.26 -0.31,3.66c0.14,1.84 0.62,3.14 1.12,4.53c1.76,4.83 1.69,9.95 -0.18,13.69c-1.34,2.67 -3.54,4.53 -6.36,5.37c-5.24,1.56 -8.49,3.76 -9.63,4.62z" fill="#3B60C9" id="svg_5"/>
  <path d="m47.82,27.36l0.01,-0.13c0.35,0.1 0.8,0.02 1.17,-0.27c0.42,-0.32 0.58,-0.8 0.47,-1.18c-0.38,-0.14 -0.88,-0.01 -1.27,0.31c-0.12,0.1 -0.22,0.21 -0.29,0.32l0.03,-0.73l0.01,-0.13c0.35,0.08 0.81,-0.04 1.15,-0.35c0.37,-0.35 0.52,-0.85 0.38,-1.21c-0.4,-0.11 -0.88,0.05 -1.25,0.39a1.55,1.55 0 0 0 -0.27,0.34l0,-0.36c0,-0.09 0,-0.18 -0.01,-0.25a9.64,9.64 0 0 1 -0.01,-0.11l0,-0.13c0.36,0.05 0.8,-0.1 1.12,-0.44c0.37,-0.38 0.45,-0.88 0.29,-1.23c-0.39,-0.08 -0.88,0.11 -1.22,0.48a1.41,1.41 0 0 0 -0.24,0.36l-0.07,-0.72l-0.01,-0.13c0.37,0.02 0.8,-0.16 1.09,-0.52c0.32,-0.39 0.4,-0.9 0.21,-1.24c-0.4,-0.05 -0.86,0.17 -1.18,0.56c-0.1,0.13 -0.17,0.25 -0.23,0.38l-0.05,-0.36c-0.02,-0.18 -0.06,-0.36 -0.06,-0.36l-0.02,-0.13c0.37,0 0.78,-0.2 1.05,-0.58c0.15,-0.21 0.24,-0.45 0.26,-0.67a0.97,0.97 0 0 0 -0.14,-0.59c-0.4,-0.03 -0.85,0.23 -1.14,0.64a1.54,1.54 0 0 0 -0.19,0.39s0,-0.04 -0.02,-0.11a24.38,24.38 0 0 1 -0.06,-0.24l-0.08,-0.36l-0.03,-0.12c0.36,-0.03 0.76,-0.26 1.02,-0.66c0.26,-0.44 0.26,-0.94 0.04,-1.26c-0.4,0 -0.84,0.28 -1.1,0.72c-0.08,0.13 -0.14,0.27 -0.17,0.4l-0.2,-0.7l-0.05,-0.12c0.37,-0.05 0.75,-0.31 0.97,-0.72c0.12,-0.23 0.17,-0.47 0.17,-0.69a0.83,0.83 0 0 0 -0.19,-0.53c-0.4,0.02 -0.83,0.3 -1.07,0.75a1.52,1.52 0 0 0 -0.14,0.41s-0.06,-0.18 -0.12,-0.34c-0.06,-0.17 -0.12,-0.34 -0.12,-0.34l-0.05,-0.12c0.37,-0.07 0.73,-0.34 0.96,-0.72c0.25,-0.43 0.28,-0.83 0.09,-1.06a1.41,1.41 0 0 0 -1.14,0.61a1.21,1.21 0 0 0 -0.17,0.39s-0.05,-0.17 -0.1,-0.34a8.81,8.81 0 0 1 -0.09,-0.35l-0.03,-0.12c0.37,-0.02 0.77,-0.24 1.06,-0.55a1.29,1.29 0 0 0 0.32,-0.51c0.02,-0.12 0.04,0.01 0.04,-0.14a0.65,0.65 0 0 0 -0.05,-0.25c-0.38,-0.11 -0.88,0 -1.25,0.34a0.72,0.72 0 0 0 -0.15,0.14a1.17,1.17 0 0 0 -0.1,0.18l-0.01,-0.11a1.56,1.56 0 0 1 -0.02,-0.23l0,-0.36l0,-0.13a1.44,1.44 0 0 0 0.47,-1.12a1.29,1.29 0 0 0 -0.02,-0.13a3.53,3.53 0 0 0 -0.02,-0.27a1.25,1.25 0 0 0 -0.2,-0.59c-0.2,0.02 -0.4,0.11 -0.58,0.25a1.29,1.29 0 0 0 -0.27,0.33a1.8,1.8 0 0 0 -0.09,0.46c-0.04,0.45 0.13,0.83 0.39,1.06l0,0.13l0,0.37c0,0.09 0.01,0.19 0.02,0.26l0.01,0.11a1.94,1.94 0 0 0 -0.14,-0.16c-0.05,-0.06 -0.1,-0.12 -0.16,-0.18c-0.38,-0.34 -0.88,-0.48 -1.26,-0.35a0.84,0.84 0 0 0 -0.04,0.29c0,0.02 0,0.05 0,0.08l0.01,0.13c0.01,0.05 0.02,0.1 0.03,0.14c0.01,0.05 0.02,0.06 0.03,0.09c0.09,0.23 0.25,0.45 0.47,0.61c0.4,0.29 0.86,0.32 1.2,0.18l0.03,0.13s0.04,0.18 0.09,0.35c0.05,0.18 0.1,0.35 0.1,0.35a1.7,1.7 0 0 0 -0.35,-0.25c-0.46,-0.23 -0.98,-0.28 -1.32,-0.05c-0.03,0.43 0.26,0.89 0.73,1.1c0.43,0.2 0.89,0.16 1.21,-0.01l0.04,0.12s0.06,0.17 0.13,0.34s0.11,0.34 0.11,0.34a1.33,1.33 0 0 0 -0.36,-0.22c-0.47,-0.19 -0.98,-0.15 -1.3,0.09a0.87,0.87 0 0 0 0.19,0.53c0.12,0.16 0.3,0.29 0.53,0.38c0.42,0.17 0.88,0.15 1.2,-0.01l0.05,0.12l0.2,0.69a1.31,1.31 0 0 0 -0.36,-0.24c-0.45,-0.21 -0.96,-0.17 -1.3,0.04c-0.03,0.35 0.22,0.71 0.67,0.92c0.4,0.19 0.85,0.21 1.19,0.07l0.03,0.12l0.09,0.35l0.05,0.24c0.02,0.07 0.03,0.11 0.03,0.11a1.32,1.32 0 0 0 -0.34,-0.26c-0.45,-0.24 -0.96,-0.23 -1.31,-0.04a0.74,0.74 0 0 0 0.13,0.51c0.1,0.17 0.26,0.32 0.48,0.44c0.39,0.22 0.84,0.27 1.19,0.15l0.02,0.12s0.04,0.18 0.06,0.36l0.05,0.35a1.39,1.39 0 0 0 -0.31,-0.28c-0.42,-0.27 -0.94,-0.29 -1.3,-0.13c-0.07,0.34 0.12,0.73 0.54,1c0.38,0.24 0.82,0.32 1.18,0.22l0.01,0.13l0.07,0.71a1.44,1.44 0 0 0 -0.3,-0.3c-0.41,-0.3 -0.92,-0.36 -1.29,-0.21c-0.09,0.33 0.09,0.72 0.47,1.02c0.36,0.27 0.8,0.38 1.16,0.31l0.01,0.12l0.01,0.11c0,0.07 0,0.16 0,0.25l0,0.36a1.31,1.31 0 0 0 -0.27,-0.33c-0.38,-0.32 -0.9,-0.41 -1.27,-0.29c-0.11,0.32 0.02,0.72 0.4,1.05c0.34,0.29 0.76,0.43 1.13,0.38l-0.01,0.13l-0.03,0.72a1.41,1.41 0 0 0 -0.26,-0.35c-0.36,-0.35 -0.85,-0.48 -1.24,-0.39c-0.14,0.31 -0.01,0.73 0.32,1.08c0.31,0.31 0.74,0.49 1.1,0.47l-0.01,0.13s-0.02,0.17 -0.04,0.35l-0.06,0.36a1.32,1.32 0 0 0 -0.22,-0.37c-0.32,-0.37 -0.82,-0.54 -1.21,-0.48c-0.16,0.3 -0.09,0.71 0.24,1.09c0.29,0.34 0.68,0.55 1.06,0.56l-0.03,0.12l-0.07,0.36c-0.02,0.08 -0.04,0.17 -0.05,0.24l-0.03,0.1a1.23,1.23 0 0 0 -0.2,-0.38c-0.3,-0.4 -0.77,-0.61 -1.16,-0.58a0.72,0.72 0 0 0 -0.1,0.51c0.02,0.19 0.1,0.39 0.24,0.59c0.26,0.36 0.65,0.61 1.01,0.65l-0.03,0.13l-0.22,0.68a1.34,1.34 0 0 0 -0.16,-0.4c-0.25,-0.43 -0.7,-0.67 -1.1,-0.68c-0.22,0.26 -0.2,0.68 0.05,1.11c0.21,0.37 0.58,0.65 0.94,0.73l-0.05,0.12l-0.13,0.33c-0.07,0.16 -0.15,0.33 -0.15,0.33a1.25,1.25 0 0 0 -0.11,-0.41c-0.23,-0.45 -0.65,-0.74 -1.05,-0.79c-0.22,0.25 -0.27,0.65 -0.05,1.1c0.19,0.4 0.51,0.72 0.86,0.83l-0.06,0.11l-0.16,0.32a5.23,5.23 0 0 1 -0.18,0.31a1.14,1.14 0 0 0 -0.08,-0.42c-0.17,-0.47 -0.57,-0.8 -0.95,-0.88a0.71,0.71 0 0 0 -0.24,0.45c-0.03,0.18 -0.01,0.4 0.07,0.63c0.14,0.42 0.43,0.76 0.77,0.91l-0.07,0.11l-0.2,0.3c-0.1,0.14 -0.21,0.29 -0.21,0.29a1.26,1.26 0 0 0 -0.03,-0.42c-0.12,-0.49 -0.48,-0.86 -0.86,-0.98c-0.27,0.19 -0.39,0.57 -0.28,1.05c0.1,0.42 0.35,0.8 0.67,0.99l-0.08,0.1s-0.03,0.03 -0.07,0.08a3.18,3.18 0 0 1 -0.16,0.19c-0.12,0.13 -0.24,0.26 -0.24,0.26c0.03,-0.13 0.03,-0.27 0.02,-0.42c-0.07,-0.49 -0.39,-0.9 -0.75,-1.07a0.74,0.74 0 0 0 -0.32,0.38a1.37,1.37 0 0 0 -0.07,0.63c0.05,0.44 0.26,0.85 0.55,1.06l-0.09,0.09s-0.03,0.04 -0.08,0.08l-0.18,0.16l-0.26,0.24c0.04,-0.13 0.06,-0.27 0.06,-0.42c-0.01,-0.5 -0.28,-0.94 -0.61,-1.14c-0.32,0.1 -0.5,0.47 -0.51,0.95c-0.01,0.43 0.16,0.87 0.42,1.12l-0.1,0.07l-0.29,0.21c-0.07,0.05 -0.14,0.1 -0.2,0.14c-0.05,0.04 -0.09,0.06 -0.09,0.06c0.06,-0.12 0.1,-0.26 0.11,-0.41c0.05,-0.5 -0.16,-0.96 -0.47,-1.21a0.66,0.66 0 0 0 -0.4,0.3a1.26,1.26 0 0 0 -0.22,0.59c-0.05,0.44 0.05,0.88 0.29,1.16l-0.11,0.07l-0.31,0.17a2.85,2.85 0 0 1 -0.21,0.12l-0.1,0.05c0.07,-0.12 0.13,-0.24 0.16,-0.39c0.1,-0.5 -0.06,-0.98 -0.34,-1.26c-0.32,0.04 -0.6,0.33 -0.71,0.81c-0.11,0.43 -0.05,0.88 0.15,1.19l-0.12,0.05s-0.16,0.07 -0.32,0.14c-0.17,0.06 -0.34,0.13 -0.34,0.13a1.32,1.32 0 0 0 0.21,-0.37c0.16,-0.48 0.05,-0.98 -0.19,-1.29a0.59,0.59 0 0 0 -0.24,0.06a0.73,0.73 0 0 0 -0.22,0.14c-0.14,0.12 -0.26,0.31 -0.35,0.53c-0.15,0.41 -0.14,0.87 0.03,1.2l-0.12,0.04l-0.69,0.22c0.09,-0.1 0.17,-0.22 0.24,-0.36a1.39,1.39 0 0 0 -0.04,-1.31c-0.15,-0.02 -0.38,0.05 -0.55,0.17a1.32,1.32 0 0 0 -0.44,0.55c-0.2,0.42 -0.17,0.88 0,1.2l-0.12,0.04l-0.68,0.25c0.08,-0.11 0.16,-0.23 0.22,-0.37c0.19,-0.47 0.16,-0.99 -0.08,-1.31c-0.38,0 -0.79,0.3 -0.98,0.78c-0.17,0.43 -0.12,0.89 0.07,1.2l-0.12,0.05s-0.17,0.07 -0.34,0.14c-0.16,0.07 -0.33,0.14 -0.33,0.14c0.08,-0.11 0.15,-0.24 0.2,-0.38c0.17,-0.48 0.11,-0.99 -0.15,-1.3c-0.38,0.01 -0.77,0.33 -0.93,0.82c-0.15,0.44 -0.08,0.9 0.13,1.2l-0.12,0.05l-0.32,0.16a8.99,8.99 0 0 0 -0.33,0.17c0.07,-0.12 0.13,-0.25 0.18,-0.4c0.14,-0.49 0.05,-1 -0.22,-1.29c-0.39,0.04 -0.76,0.38 -0.9,0.88c-0.12,0.45 -0.02,0.9 0.21,1.19l-0.11,0.06s-0.16,0.09 -0.32,0.18l-0.31,0.18c0.06,-0.12 0.12,-0.25 0.15,-0.4c0.11,-0.5 -0.01,-1 -0.3,-1.28c-0.39,0.07 -0.74,0.44 -0.84,0.95c-0.1,0.46 0.03,0.9 0.28,1.17l-0.11,0.07l-0.28,0.19a0.16,0.16 0 0 0 -0.04,0.22c0.05,0.07 0.15,0.09 0.22,0.04l0.28,-0.18l0.11,-0.08c0.14,0.34 0.49,0.64 0.91,0.78c0.47,0.15 0.89,0.06 1.11,-0.2c-0.09,-0.39 -0.43,-0.77 -0.91,-0.93a1.32,1.32 0 0 0 -0.42,-0.07l0.31,-0.18l0.31,-0.18l0.11,-0.06c0.12,0.35 0.45,0.67 0.86,0.84c0.46,0.18 0.89,0.12 1.13,-0.14c-0.07,-0.39 -0.38,-0.79 -0.85,-0.98a1.29,1.29 0 0 0 -0.41,-0.1s0.15,-0.08 0.32,-0.16l0.32,-0.16l0.11,-0.05c0.1,0.35 0.41,0.7 0.81,0.89c0.45,0.2 0.89,0.16 1.14,-0.07c-0.04,-0.4 -0.34,-0.82 -0.79,-1.04a1.36,1.36 0 0 0 -0.41,-0.12s0.16,-0.07 0.33,-0.14c0.16,-0.07 0.33,-0.14 0.33,-0.14l0.12,-0.04c0.08,0.36 0.36,0.71 0.76,0.93c0.43,0.23 0.88,0.22 1.14,-0.01c-0.02,-0.4 -0.3,-0.84 -0.74,-1.07a1.36,1.36 0 0 0 -0.4,-0.15l0.67,-0.24l0.12,-0.04c0.07,0.36 0.33,0.73 0.72,0.96c0.21,0.13 0.43,0.2 0.63,0.2a0.83,0.83 0 0 0 0.53,-0.16c0.01,-0.4 -0.28,-0.83 -0.7,-1.09a1.35,1.35 0 0 0 -0.4,-0.17l0.69,-0.21l0.12,-0.04c0.06,0.36 0.31,0.74 0.74,0.96c0.23,0.12 0.48,0.16 0.71,0.14c0.11,0 0.22,-0.03 0.32,-0.07a0.91,0.91 0 0 0 0.26,-0.16c-0.03,-0.4 -0.37,-0.8 -0.83,-1.01a1.53,1.53 0 0 0 -0.41,-0.14l0.34,-0.13c0.17,-0.07 0.33,-0.14 0.33,-0.14l0.12,-0.05c0.09,0.35 0.39,0.71 0.84,0.87c0.49,0.18 1.01,0.07 1.28,-0.23c-0.08,-0.4 -0.46,-0.76 -0.94,-0.92a1.81,1.81 0 0 0 -0.43,-0.08l0.1,-0.05c0.06,-0.04 0.14,-0.07 0.22,-0.12l0.32,-0.18l0.11,-0.07c0.13,0.34 0.47,0.67 0.93,0.78c0.26,0.06 0.51,0.05 0.73,-0.02c0.22,-0.07 0.4,-0.2 0.52,-0.36c-0.12,-0.38 -0.54,-0.7 -1.04,-0.8a1.72,1.72 0 0 0 -0.43,-0.04s0.04,-0.02 0.09,-0.06c0.06,-0.04 0.13,-0.09 0.2,-0.14l0.3,-0.22l0.11,-0.07c0.17,0.32 0.53,0.6 1.01,0.65c0.53,0.07 1,-0.17 1.19,-0.52c-0.17,-0.37 -0.61,-0.63 -1.13,-0.68a1.47,1.47 0 0 0 -0.43,0.02l0.27,-0.24l0.19,-0.17c0.05,-0.04 0.08,-0.08 0.08,-0.08l0.1,-0.09c0.2,0.31 0.6,0.53 1.08,0.54a1.29,1.29 0 0 0 0.7,-0.19c0.2,-0.12 0.35,-0.28 0.42,-0.47c-0.21,-0.35 -0.68,-0.55 -1.19,-0.54a1.54,1.54 0 0 0 -0.43,0.06l0.24,-0.27a3.34,3.34 0 0 0 0.16,-0.19l0.08,-0.08l0.08,-0.1c0.24,0.27 0.66,0.46 1.14,0.41c0.52,-0.06 0.94,-0.39 1.04,-0.78c-0.25,-0.32 -0.75,-0.48 -1.25,-0.4a1.61,1.61 0 0 0 -0.42,0.11s0.11,-0.14 0.22,-0.29c0.1,-0.16 0.2,-0.31 0.2,-0.31l0.07,-0.1c0.27,0.24 0.71,0.38 1.17,0.28a1.44,1.44 0 0 0 0.65,-0.34a0.98,0.98 0 0 0 0.3,-0.54c-0.28,-0.29 -0.79,-0.4 -1.28,-0.27a1.79,1.79 0 0 0 -0.41,0.16s0.1,-0.16 0.18,-0.32l0.18,-0.32l0.06,-0.12c0.29,0.22 0.75,0.31 1.19,0.16c0.49,-0.17 0.84,-0.57 0.85,-0.97c-0.31,-0.26 -0.83,-0.31 -1.3,-0.14c-0.15,0.06 -0.28,0.12 -0.39,0.2c0,0 0.08,-0.16 0.15,-0.33l0.13,-0.34l0.05,-0.12c0.32,0.19 0.77,0.23 1.21,0.04c0.48,-0.21 0.76,-0.65 0.75,-1.04c-0.33,-0.23 -0.85,-0.23 -1.31,-0.01c-0.14,0.06 -0.26,0.14 -0.37,0.23l0.23,-0.69l0.03,-0.13c0.33,0.16 0.79,0.16 1.2,-0.07c0.23,-0.13 0.41,-0.3 0.52,-0.49c0.11,-0.2 0.16,-0.41 0.13,-0.61c-0.35,-0.19 -0.87,-0.15 -1.3,0.1a1.75,1.75 0 0 0 -0.34,0.27s0.01,-0.04 0.03,-0.11c0.01,-0.07 0.03,-0.16 0.05,-0.24c0.03,-0.18 0.07,-0.36 0.07,-0.36l0.02,-0.13c0.35,0.13 0.81,0.09 1.2,-0.17c0.43,-0.29 0.64,-0.76 0.56,-1.14c-0.37,-0.17 -0.87,-0.09 -1.3,0.2a1.5,1.5 0 0 0 -0.32,0.29l0.06,-0.36c0.04,-0.15 0.06,-0.33 0.06,-0.33z" fill="#3B60C9" id="svg_6"/>
  <path d="m16.82,30.55c-0.73,-1.75 -1.47,-3.58 -2.53,-5.13c-0.34,-0.51 -0.97,-1.25 -1.62,-0.64c-0.63,0.58 0.24,1.9 0.18,2.64c-0.1,1.02 -0.72,2.05 -1.5,2.7c-0.53,0.44 -2.07,1.17 -1.51,2.06c0.35,0.56 1.35,0.16 1.85,0.07c1.22,-0.23 2.42,0.23 3.39,0.97c0.38,0.3 0.68,0.71 1.13,0.91c0.17,0.08 0.31,0.12 0.43,0.12a0.53,0.53 0 0 0 0.31,-0.06c1.04,-0.61 0.42,-2.35 0.07,-3.19c-0.07,-0.15 -0.13,-0.3 -0.2,-0.45zm23.91,-3.35c-0.8,-0.53 -2,0.76 -2.82,0.89c-1.13,0.17 -2.41,-0.23 -3.32,-0.91c-0.62,-0.45 -1.82,-1.93 -2.64,-1.09c-0.51,0.53 0.19,1.52 0.42,2.02c0.58,1.27 0.4,2.69 -0.15,3.94c-0.21,0.49 -0.57,0.93 -0.68,1.47a1.38,1.38 0 0 0 -0.02,0.5a0.6,0.6 0 0 0 0.15,0.31c0.94,0.97 2.66,-0.16 3.48,-0.77c0.14,-0.11 0.29,-0.22 0.44,-0.33c1.7,-1.25 3.48,-2.54 4.89,-4.11c0.45,-0.5 1.08,-1.38 0.25,-1.93l0,0.01z" fill="#3350A3" id="svg_7"/>
  <path d="m35.17,24.95a1.72,1.72 0 0 0 3.35,0.78a1.72,1.72 0 0 0 -3.35,-0.78z" fill="#3350A3" id="svg_8"/>
  <path d="m15.76,22a36.65,36.65 0 0 0 -0.05,1.58c0.05,-0.01 0.11,-0.02 0.16,-0.04c0.05,-0.49 0.11,-0.98 0.19,-1.46c1.12,0.29 2.31,0.53 3.51,0.71c0,0 0,-0.01 0,-0.02c0.11,-0.51 0.28,-0.99 0.53,-1.42a24.92,24.92 0 0 1 -3.72,-0.99c0.38,-1.72 0.93,-3.39 1.7,-4.97c1.64,0.45 3.34,0.65 4.3,0.74c0.49,0.05 0.98,0.09 1.48,0.11l0.16,2.54a5.09,5.09 0 0 1 0.83,0l0.16,-2.51c2.01,-0.01 4.02,-0.26 5.94,-0.81c0.88,1.81 1.46,3.74 1.83,5.72a26.2,26.2 0 0 1 -3.72,0.63c0.13,0.31 0.23,0.62 0.3,0.95a25.55,25.55 0 0 0 3.54,-0.92a32.23,32.23 0 0 1 0.35,3.25a31.12,31.12 0 0 0 -0.03,-3.36c2.05,-0.74 4,-1.75 5.71,-3.04a16.06,16.06 0 0 1 1.71,6.4a16.14,16.14 0 0 0 -1.22,-6.77l-0.01,-0.03c-2.44,-5.81 -8.15,-9.96 -14.78,-10.34l-0.02,0l-0.03,-0.01l-0.17,0l-0.03,0.01l-0.01,0c-9.05,0.48 -16.29,8.01 -16.02,17.13a15.83,15.83 0 0 1 1.54,-6.1c1.07,1.28 3.27,2.3 5.87,3.02zm23.15,-3.37c-1.75,1.11 -3.7,1.92 -5.74,2.45c-0.16,-1.95 -0.51,-4.03 -1.14,-5.96a17.8,17.8 0 0 0 3.02,-1.38a15.99,15.99 0 0 1 3.86,4.89zm-3.91,-4.93c-1,0.45 -2.03,0.8 -3.09,1.06c-0.51,-1.47 -1.19,-2.84 -2.09,-3.96a15.48,15.48 0 0 1 5.17,2.9l0.01,0zm-9.58,-3.59c2.45,0.4 4.23,2.84 5.3,4.9a21.14,21.14 0 0 1 -5.64,0.23c0.12,-1.71 0.23,-3.42 0.34,-5.13zm-1.96,0.02c0.11,1.65 0.21,3.3 0.32,4.95a21.4,21.4 0 0 1 -4.82,-1.26c1.06,-1.69 2.57,-3.32 4.5,-3.69zm-4.3,0.7a12.01,12.01 0 0 0 -1.48,2.45c-0.59,-0.27 -1.2,-0.62 -1.59,-1.06a15.69,15.69 0 0 1 3.07,-1.39zm-4.82,2.6c0.59,0.71 1.56,1.23 2.65,1.62c-0.55,1.66 -0.89,3.43 -1.08,5.13c-1.87,-0.71 -3.59,-1.69 -4.98,-3.02a15.91,15.91 0 0 1 3.41,-3.73zm-4.22,5.12c-0.04,0.17 -0.11,0.32 -0.22,0.43c0.07,-0.15 0.14,-0.29 0.22,-0.43z" fill="#3350A3" id="svg_9"/>
  <path d="m21.74,22.93a2.79,2.79 0 1 0 5.47,1.09a2.79,2.79 0 0 0 -5.47,-1.09z" fill="#242835" id="svg_10"/>
  <path d="m30.43,27.13c-1.32,-0.62 -3.25,0.67 -4.54,0.94c-1.72,0.35 -3.31,-0.43 -4.66,-1.43c-0.89,-0.65 -3.17,-2.66 -4.33,-1.62c-1.33,1.19 1.24,3.5 1.89,4.44c1.11,1.58 2.11,3.24 2.87,5.01c0.5,1.16 0.64,2.38 1.25,3.38c0.24,0.39 0.54,0.74 0.96,1.05c1.09,0.79 2.59,0.97 3.1,-0.54c0.37,-1.12 -0.1,-2.34 -0.01,-3.48c0.14,-1.6 0.83,-3.16 1.97,-4.29c0.8,-0.8 3.14,-2.3 1.5,-3.46z" fill="#242835" id="svg_11"/>
 </g>
</svg>